<svg width="1194" height="2015" viewBox="0 0 1194 2015" fill="none" xmlns="http://www.w3.org/2000/svg">
<rect x="796.1" y="0.474609" width="397.686" height="397.686" rx="94" fill="#474DFF" fill-opacity="0.05"/>
<path d="M1033.48 129.796C1041.92 121.36 1055.65 121.36 1064.09 129.796C1072.53 138.233 1072.53 151.967 1064.09 160.403C1059.2 165.29 1052.51 167.502 1045.72 166.524C1045.41 166.473 1045.05 166.473 1044.75 166.524C1042.74 166.267 1040.63 166.524 1038.62 167.45C1035.79 168.736 1033.79 171.103 1032.81 173.829C1031.83 176.504 1031.88 179.539 1033.17 182.265C1040.42 197.954 1037.08 216.73 1024.83 228.972C1012.59 241.215 993.811 244.559 978.119 237.306C975.289 236.02 972.254 235.968 969.527 236.997C966.852 237.974 964.588 239.981 963.302 242.758C962.479 244.559 962.17 246.41 962.273 248.262C962.221 248.622 962.221 248.983 962.273 249.343C963.405 256.236 961.141 263.283 956.202 268.221C947.764 276.657 934.027 276.657 925.59 268.221C921.474 264.106 919.261 258.705 919.261 252.892C919.261 247.131 921.525 241.678 925.59 237.563C930.477 232.676 937.166 230.464 943.957 231.442C944.06 231.442 944.163 231.442 944.317 231.442C945.037 231.596 945.758 231.699 946.529 231.699C948.124 231.699 949.719 231.39 951.211 230.67C953.989 229.384 955.944 227.121 956.973 224.497C958.002 221.771 958.002 218.684 956.665 215.855C949.41 200.166 952.755 181.391 965 169.148C977.244 156.905 996.023 153.562 1011.72 160.815C1014.49 162.101 1017.58 162.152 1020.26 161.175C1022.93 160.197 1025.25 158.191 1026.53 155.413C1027.51 153.253 1027.77 150.938 1027.41 148.726V148.675C1026.28 141.782 1028.54 134.735 1033.48 129.796ZM1012.08 216.215C1021.44 206.853 1021.44 191.679 1012.08 182.316C1002.71 172.954 987.534 172.954 978.17 182.316C968.807 191.679 968.807 206.853 978.17 216.215C987.534 225.577 1002.71 225.577 1012.08 216.215ZM994.943 54.437C1074.95 54.437 1139.82 119.303 1139.82 199.292C1139.82 279.281 1075 344.198 994.943 344.198C914.888 344.198 850.062 279.332 850.062 199.292C850.062 119.251 914.94 54.437 994.943 54.437ZM1072.17 168.479C1084.98 155.671 1084.98 134.94 1072.17 122.132C1059.36 109.323 1038.62 109.323 1025.81 122.132C1021.08 126.864 1018.09 132.728 1016.86 138.85C993.657 130.105 967.006 135.661 949.256 153.407C931.506 171.154 925.95 197.8 934.748 221.051C928.574 222.285 922.708 225.269 917.924 230.053C905.113 242.861 905.113 263.591 917.924 276.4C930.734 289.208 951.468 289.208 964.279 276.4C969.064 271.616 972.099 265.649 973.283 259.476C980.486 262.151 987.997 263.489 995.457 263.489C1012.08 263.489 1028.49 257.059 1040.68 244.867C1058.33 227.223 1063.94 200.732 1055.34 177.533C1061.47 176.247 1067.38 173.263 1072.17 168.479Z" fill="#474DFF"/>
<path fill-rule="evenodd" clip-rule="evenodd" d="M130.393 994.688C130.393 964.87 106.753 940.573 77.1916 939.519C76.0877 939.48 75.1885 938.588 75.1885 937.483V876.531C75.1885 875.427 76.0918 874.53 77.1963 874.548C142.631 875.62 195.345 928.998 195.345 994.688C195.345 1060.38 142.631 1113.76 77.1963 1114.83C76.0918 1114.85 75.1885 1113.95 75.1885 1112.85V1051.89C75.1885 1050.79 76.0877 1049.9 77.1916 1049.86C106.753 1048.8 130.393 1024.51 130.393 994.688Z" fill="#474DFF"/>
<path fill-rule="evenodd" clip-rule="evenodd" d="M268.749 994.675C268.749 1024.49 292.39 1048.79 321.951 1049.84C323.055 1049.88 323.954 1050.78 323.954 1051.88L323.954 1112.83C323.954 1113.94 323.051 1114.83 321.946 1114.82C256.512 1113.74 203.797 1060.37 203.797 994.675C203.797 928.985 256.512 875.607 321.946 874.535C323.051 874.516 323.954 875.414 323.954 876.518L323.954 937.47C323.954 938.575 323.055 939.467 321.951 939.506C292.39 940.56 268.749 964.857 268.749 994.675Z" fill="#20DEB0"/>
<rect x="0.728516" y="795.839" width="397.686" height="397.686" rx="94" fill="#474DFF" fill-opacity="0.05"/>
<circle cx="461.92" cy="993.97" r="14" fill="#474DFF"/>
<circle cx="201.355" cy="1269.85" r="14" transform="rotate(90 201.355 1269.85)" fill="#474DFF"/>
<circle cx="994.54" cy="1748.03" r="14" transform="rotate(90 994.54 1748.03)" fill="#474DFF"/>
<circle cx="597.911" cy="1748.03" r="14" transform="rotate(90 597.911 1748.03)" fill="#474DFF"/>
<circle cx="201.282" cy="1748.03" r="14" transform="rotate(90 201.282 1748.03)" fill="#474DFF"/>
<circle cx="994.54" cy="444.841" r="14" fill="#474DFF"/>
<path d="M462.041 994.091H914.54C958.723 994.091 994.54 958.274 994.54 914.091V444.841" stroke="#474DFF" stroke-width="3"/>
<path d="M201.282 1270.76V1427.21C201.282 1471.39 237.099 1507.21 281.282 1507.21H914.54C958.723 1507.21 994.54 1543.02 994.54 1587.21V1748.03" stroke="#474DFF" stroke-width="3"/>
<path d="M201.282 1270.76V1427.21C201.282 1471.39 237.099 1507.21 281.282 1507.21H518.316C562.499 1507.21 598.316 1543.02 598.316 1587.21V1748.03" stroke="#474DFF" stroke-width="3"/>
<path d="M201.282 1270.76V1751.83" stroke="#474DFF" stroke-width="3"/>
<rect x="94.2949" y="1800.21" width="213.975" height="213.975" rx="42" fill="#474DFF"/>
<rect x="490.924" y="1800.21" width="213.975" height="213.975" rx="42" fill="#A334FB"/>
<rect x="887.553" y="1800.21" width="213.975" height="213.975" rx="42" fill="#20DEB0"/>
<circle cx="728.29" cy="994.091" r="89.7229" fill="#EE694B"/>
<path fill-rule="evenodd" clip-rule="evenodd" d="M757.939 1028.22C774.313 1011.84 774.313 985.294 757.939 968.92L757.939 968.92L728.291 939.272L698.751 968.812L698.643 968.92C682.269 985.294 682.269 1011.84 698.643 1028.22C715.017 1044.59 741.564 1044.59 757.939 1028.22ZM742.467 1012.74C750.296 1004.91 750.296 992.221 742.467 984.392L742.467 984.392L728.291 970.216L714.175 984.331L714.115 984.392C706.286 992.221 706.286 1004.91 714.115 1012.74C721.944 1020.57 734.637 1020.57 742.467 1012.74Z" fill="white"/>
<rect x="158.852" y="1864.76" width="84.8615" height="84.8615" rx="20.5" stroke="white" stroke-width="3"/>
<rect x="158.852" y="1864.76" width="84.8615" height="84.8615" rx="20.5" stroke="white" stroke-width="3"/>
<path d="M613.883 1949.63L613.878 1949.63L613.834 1949.63H553.973C547.069 1949.63 541.473 1944.03 541.473 1937.13V1877.26C541.473 1870.36 547.069 1864.76 553.973 1864.76H613.834C620.738 1864.76 626.334 1870.36 626.334 1877.26V1894.87C626.334 1898.46 629.244 1901.37 632.834 1901.37H642.661C649.565 1901.37 655.161 1906.97 655.161 1913.87V1937.13C655.161 1944.03 649.565 1949.63 642.661 1949.63L613.883 1949.63Z" stroke="white" stroke-width="3"/>
<rect x="178.211" y="1884.12" width="46.143" height="46.143" rx="14" fill="white"/>
<rect x="553.607" y="1877.87" width="34.7422" height="60.1641" rx="3.5" fill="white" stroke="white" stroke-width="3"/>
<circle cx="994.541" cy="1907.19" r="56.8316" stroke="white" stroke-width="3"/>
<circle cx="994.54" cy="1907.19" r="42.4307" stroke="white" stroke-width="3" stroke-dasharray="4 4"/>
<circle cx="994.54" cy="1907.19" r="21.571" fill="white"/>
<circle cx="613.469" cy="1930.16" r="7.96213" stroke="white" stroke-width="3"/>
<circle cx="636.275" cy="1930.16" r="7.96213" stroke="white" stroke-width="3"/>
</svg>
