<svg width="617" height="265" viewBox="0 0 617 265" fill="none" xmlns="http://www.w3.org/2000/svg">
<path fill-rule="evenodd" clip-rule="evenodd" d="M308.574 10.4177C265.979 10.4177 231.449 44.948 231.449 87.5432C231.449 130.139 265.979 164.669 308.574 164.669V174.318C260.65 174.318 221.799 135.468 221.799 87.5432C221.799 39.6189 260.65 0.768555 308.574 0.768555C356.498 0.768565 395.349 39.6189 395.349 87.5432H385.7C385.7 44.948 351.169 10.4177 308.574 10.4177ZM308.574 34.3208C279.18 34.3208 255.351 58.1497 255.351 87.5442C255.351 116.939 279.18 140.768 308.574 140.768L308.574 150.417C273.851 150.417 245.702 122.268 245.702 87.5442C245.702 52.8207 273.851 24.6717 308.574 24.6717C343.298 24.6717 371.447 52.8207 371.447 87.5442L361.797 87.5442C361.797 58.1497 337.969 34.3208 308.574 34.3208ZM308.575 65.3224C320.847 65.3224 330.795 75.271 330.795 87.5432C330.795 99.8154 320.847 109.764 308.575 109.764C296.302 109.764 286.354 99.8154 286.354 87.5432C286.354 75.271 296.302 65.3224 308.575 65.3224ZM308.575 55.6733C326.176 55.6733 340.445 69.9419 340.445 87.5432C340.445 94.6034 338.149 101.127 334.263 106.409L363.763 135.909L356.94 142.732L327.44 113.232C322.158 117.118 315.634 119.413 308.575 119.413C290.973 119.413 276.705 105.144 276.705 87.5432C276.705 69.9419 290.973 55.6733 308.575 55.6733ZM448.173 215.554H443.349L423.477 237.442H423.405V197.554H419.589V250.546H423.405V242.842L432.045 233.338H432.189L443.781 250.546H448.173L434.781 230.314L448.173 215.554ZM22.1809 244.498L39.1009 199.426H43.4929L24.0529 250.546H20.2369L0.796875 199.426H5.26088L22.0369 244.498H22.1809ZM56.6267 204.97C56.6267 206.77 55.2587 208.138 53.4587 208.138C51.5867 208.138 50.2187 206.77 50.2187 204.97C50.2187 203.17 51.5867 201.802 53.4587 201.802C55.2587 201.802 56.6267 203.17 56.6267 204.97ZM55.2587 250.546H51.4427V215.554H55.2587V250.546ZM97.2735 232.114C97.2735 222.466 91.0095 215.266 81.5055 215.266C72.3615 215.266 65.0895 222.538 65.0895 233.05C65.0895 243.634 72.4335 250.906 82.1535 250.906C88.2015 250.906 92.8095 248.314 95.8335 244.354L93.0975 242.05C90.5775 245.146 86.9055 247.306 82.0815 247.306C74.8095 247.306 69.4095 241.978 68.9775 233.986H97.2015C97.2015 233.97 97.2051 233.91 97.2107 233.818L97.2107 233.818C97.2301 233.498 97.2735 232.784 97.2735 232.114ZM81.7935 218.866C88.2735 218.866 92.6655 223.546 93.4575 230.458H69.1935C70.2015 223.402 75.3855 218.866 81.7935 218.866ZM137.7 244.786L147.852 215.554H151.74L139.5 250.546H135.54L126.612 222.322H126.396L117.612 250.546H113.796L101.484 215.554H105.444L115.596 244.714H115.74L124.74 215.554H128.268L137.556 244.786H137.7ZM217.539 199.426V243.634H217.395L185.067 199.426H181.107V250.546H185.139V206.554H185.283L217.467 250.546H221.571V199.426H217.539ZM248.146 215.266C257.65 215.266 263.914 222.466 263.914 232.114C263.914 232.783 263.871 233.496 263.851 233.817L263.851 233.818L263.845 233.921L263.844 233.936L263.843 233.967L263.842 233.976L263.842 233.986H235.618C236.05 241.978 241.45 247.306 248.722 247.306C253.546 247.306 257.218 245.146 259.738 242.05L262.474 244.354C259.45 248.314 254.842 250.906 248.794 250.906C239.074 250.906 231.73 243.634 231.73 233.05C231.73 222.538 239.002 215.266 248.146 215.266ZM260.098 230.458C259.306 223.546 254.914 218.866 248.434 218.866C242.026 218.866 236.842 223.402 235.834 230.458H260.098ZM282.56 250.906C286.304 250.906 288.824 249.682 290.552 248.674L289.616 245.218C288.104 246.082 285.656 247.234 282.992 247.234C278.816 247.234 277.88 244.57 277.88 239.746V219.082H290.624V215.554H277.88V202.882L274.064 203.314V215.554H269.456V219.082H274.064V240.682C274.064 247.09 276.224 250.906 282.56 250.906ZM332.114 244.786L342.266 215.554H346.154L333.914 250.546H329.954L321.026 222.322H320.81L312.026 250.546H308.21L295.898 215.554H299.858L310.01 244.714H310.154L319.154 215.554H322.682L331.97 244.786H332.114ZM367.85 250.906C377.93 250.906 385.562 243.634 385.562 233.122C385.562 222.466 377.93 215.194 367.85 215.194C357.122 215.194 350.066 223.186 350.066 233.122C350.066 242.986 357.122 250.906 367.85 250.906ZM367.778 247.306C359.498 247.306 353.954 240.898 353.954 233.122C353.954 225.202 359.426 218.794 367.778 218.794C375.482 218.794 381.674 224.554 381.674 233.122C381.674 241.546 375.482 247.306 367.778 247.306ZM398.869 222.25C401.389 217.786 405.637 215.194 410.749 215.194C411.397 215.194 412.045 215.194 412.621 215.266V219.442L412.62 219.442C411.829 219.37 411.037 219.298 410.389 219.298C403.261 219.298 398.725 225.13 398.725 233.41V250.546H394.909V215.554H398.725V222.25H398.869ZM502.104 234.706L522.624 199.426H526.656V250.546H522.624V207.49H522.552L503.472 239.962H500.52L481.368 207.49H481.296V250.546H477.264V199.426H481.368L501.96 234.706H502.104ZM567.128 215.554V222.466H566.984C564.104 217.858 559.208 215.194 553.736 215.194C543.728 215.194 536.744 223.186 536.744 233.338C536.744 243.994 544.448 250.906 553.88 250.906C559.784 250.906 564.392 248.17 567.128 243.85H567.272V250.546H570.872V215.554H567.128ZM554.096 247.306C546.104 247.306 540.632 241.258 540.632 233.41C540.632 224.554 546.752 218.866 554.168 218.866C561.8 218.866 567.272 225.274 567.272 233.41C567.272 241.69 561.152 247.306 554.096 247.306ZM586.039 222.538C588.991 217.858 593.887 215.194 599.359 215.194C609.367 215.194 616.351 223.186 616.351 233.338C616.351 243.994 608.647 250.906 599.215 250.906C593.383 250.906 588.847 248.314 586.111 244.066H585.967V264.802H582.151V215.554H585.967V222.538H586.039ZM585.823 233.41C585.823 241.69 591.943 247.306 598.999 247.306C606.991 247.306 612.463 241.258 612.463 233.41C612.463 224.554 606.343 218.866 598.927 218.866C591.295 218.866 585.823 225.274 585.823 233.41Z" fill="white"/>
</svg>
